<?xml version="1.0" encoding="UTF-8"?>
<svg width="59px" height="55px" viewBox="0 0 59 55" version="1.1" xmlns="http://www.w3.org/2000/svg" xmlns:xlink="http://www.w3.org/1999/xlink">
    <title>Group</title>
    <g id="лендинг" stroke="none" stroke-width="1" fill="none" fill-rule="evenodd">
        <g id="Desktop-HD-Copy-8" transform="translate(-253.000000, -897.000000)" fill-rule="nonzero">
            <g id="Group-17" transform="translate(233.000000, 759.000000)">
                <g id="Group-13" transform="translate(0.000000, 105.000000)">
                    <g id="Group" transform="translate(20.000000, 33.000000)">
                        <path d="M33.1893296,44.90411 L25.37996,44.90411 C24.8408114,44.90411 24.4037354,45.341186 24.4037354,45.8802492 L24.4037354,49.7849767 C24.4037354,50.0438739 24.5065768,50.292265 24.6896243,50.4753124 C24.8726717,50.6582744 25.1210627,50.7612012 25.37996,50.7612012 L33.1893296,50.7612012 C33.4481414,50.7612012 33.6966179,50.6582744 33.8795799,50.4753124 C34.0626273,50.292265 34.1654688,50.0438739 34.1654688,49.7849767 L34.1654688,45.8802492 C34.1654688,45.6214373 34.0626273,45.3730463 33.8795799,45.1899989 C33.6966179,45.0069514 33.4481414,44.90411 33.1893296,44.90411 Z M32.213105,48.8088375 L26.3560992,48.8088375 L26.3560992,46.8564737 L32.213105,46.8564737 L32.213105,48.8088375 Z" id="Shape" fill="#FA8202"></path>
                        <path d="M40.9986992,44.90411 L37.0940571,44.90411 C36.5549939,44.90411 36.1178325,45.341186 36.1178325,45.8802492 L36.1178325,49.7849767 C36.1178325,50.0438739 36.2206739,50.292265 36.4037214,50.4753124 C36.5867688,50.6582744 36.8351598,50.7612012 37.0940571,50.7612012 L40.9986992,50.7612012 C41.2575964,50.7612012 41.5059875,50.6582744 41.6890349,50.4753124 C41.8720823,50.292265 41.9749238,50.0438739 41.9749238,49.7849767 L41.9749238,45.8802492 C41.9749238,45.6214373 41.8720823,45.3730463 41.6890349,45.1899989 C41.5059875,45.0069514 41.2575964,44.90411 40.9986992,44.90411 Z M40.02256,48.8088375 L38.0701963,48.8088375 L38.0701963,46.8564737 L40.02256,46.8564737 L40.02256,48.8088375 Z" id="Shape" fill="#FA8202"></path>
                        <path d="M48.8079833,44.90411 L44.9032558,44.90411 C44.3641926,44.90411 43.9271167,45.341186 43.9271167,45.8802492 L43.9271167,49.7849767 C43.9271167,50.0438739 44.0299581,50.292265 44.2130055,50.4753124 C44.396053,50.6582744 44.644444,50.7612012 44.9032558,50.7612012 L48.8079833,50.7612012 C49.0668806,50.7612012 49.3152716,50.6582744 49.4983191,50.4753124 C49.6812811,50.292265 49.7842079,50.0438739 49.7842079,49.7849767 L49.7842079,45.8802492 C49.7842079,45.6214373 49.6812811,45.3730463 49.4983191,45.1899989 C49.3152716,45.0069514 49.0668806,44.90411 48.8079833,44.90411 Z M47.8318442,48.8088375 L45.8794804,48.8088375 L45.8794804,46.8564737 L47.8318442,46.8564737 L47.8318442,48.8088375 Z" id="Shape" fill="#FA8202"></path>
                        <path d="M21.4751471,44.90411 L17.5704196,44.90411 C17.0313564,44.90411 16.5942804,45.341186 16.5942804,45.8802492 L16.5942804,49.7849767 C16.5942804,50.0438739 16.6971218,50.292265 16.8801693,50.4753124 C17.0632167,50.6582744 17.3116077,50.7612012 17.5704196,50.7612012 L21.4751471,50.7612012 C21.7340443,50.7612012 21.9824354,50.6582744 22.1654828,50.4753124 C22.3484448,50.292265 22.4512863,50.0438739 22.4512863,49.7849767 L22.4512863,45.8802492 C22.4512863,45.6214373 22.3484448,45.3730463 22.1654828,45.1899989 C21.9824354,45.0069514 21.7340443,44.90411 21.4751471,44.90411 Z M20.4990079,48.8088375 L18.5466442,48.8088375 L18.5466442,46.8564737 L20.4990079,46.8564737 L20.4990079,48.8088375 Z" id="Shape" fill="#FA8202"></path>
                        <path d="M13.6656921,44.90411 L9.76096459,44.90411 C9.22190138,44.90411 8.78482542,45.341186 8.78482542,45.8802492 L8.78482542,49.7849767 C8.78482542,50.0438739 8.88766682,50.292265 9.07071427,50.4753124 C9.2536763,50.6582744 9.50215275,50.7612012 9.76096459,50.7612012 L13.6656921,50.7612012 C13.9245039,50.7612012 14.1729804,50.6582744 14.3559424,50.4753124 C14.5389898,50.292265 14.6418313,50.0438739 14.6418313,49.7849767 L14.6418313,45.8802492 C14.6418313,45.6214373 14.5389898,45.3730463 14.3559424,45.1899989 C14.172895,45.0069514 13.9245039,44.90411 13.6656921,44.90411 Z M12.6894675,48.8088375 L10.7371892,48.8088375 L10.7371892,46.8564737 L12.6894675,46.8564737 L12.6894675,48.8088375 Z" id="Shape" fill="#FA8202"></path>
                        <path d="M55.6412138,1.95234667 L42.8427549,1.95234667 C41.5693665,0.701172517 39.8559125,0 38.0704525,0 C36.2849925,0 34.5714531,0.701194725 33.2981501,1.95234667 L2.92846875,1.95234667 C2.15188803,1.95234667 1.40663806,2.26088796 0.857640929,2.8099876 C0.308638668,3.35908723 0,4.1043372 0,4.88081542 L0,51.737255 C0,52.5137759 0.308537876,53.2590344 0.857640929,53.8080914 C1.40674056,54.3570629 2.15199053,54.6656725 2.92846875,54.6656725 L55.6418971,54.6656725 C56.4185034,54.6656725 57.1637619,54.3571483 57.7127334,53.8080914 C58.2617904,53.258949 58.5704,52.5136905 58.5704,51.737255 L58.5704,4.88081542 C58.5704,4.10424324 58.2618758,3.35899327 57.7127334,2.8099876 C57.1636765,2.26099046 56.418418,1.95234667 55.6418971,1.95234667 L55.6412138,1.95234667 Z M52.7127108,7.80940375 L52.7127108,17.5711883 L25.3797892,17.5711883 L25.3797892,7.80940375 L31.3745717,7.80940375 C32.2025134,11.2024526 36.8882034,14.9581284 37.4699749,15.4118605 L37.4695478,15.4118605 C37.822574,15.6872432 38.3176477,15.6872432 38.6706739,15.4118605 C39.2563745,14.9577867 43.9419791,11.2026234 44.766077,7.80940375 L52.7127108,7.80940375 Z M52.7127108,25.3805579 L41.9748383,25.3805579 C41.4356897,25.3805579 40.9986138,25.8176339 40.9986138,26.3566971 L40.9986138,40.9993825 L35.1416079,40.9993825 L35.1416079,26.3566971 C35.1416079,26.0978852 35.0387665,25.8494942 34.8557191,25.6664468 C34.6726716,25.4833993 34.4242806,25.3805579 34.1653833,25.3805579 L24.40365,25.3805579 C23.8645868,25.3805579 23.4275108,25.8176339 23.4275108,26.3566971 L23.4275108,40.9993825 L17.5704196,40.9993825 L17.5704196,26.3566971 C17.5704196,26.0978852 17.4675782,25.8494942 17.2845307,25.6664468 C17.1014833,25.4833993 16.8530923,25.3805579 16.5942804,25.3805579 L5.8563225,25.3805579 L5.8563225,19.5234667 L16.5942804,19.5234667 C16.8530923,19.5234667 17.1014833,19.4206253 17.2845307,19.2376632 C17.4675782,19.0546158 17.5704196,18.8062248 17.5704196,18.5473275 L17.5704196,7.80940375 L23.4275108,7.80940375 L23.4275108,18.5473275 C23.4275108,18.8062248 23.5303522,19.0546158 23.7133143,19.2376632 C23.8963617,19.4206253 24.1447527,19.5234667 24.40365,19.5234667 L52.7127108,19.5234667 L52.7127108,25.3805579 Z M52.7127108,27.3329217 L52.7127108,40.9993825 L42.9509775,40.9993825 L42.9509775,27.3329217 L52.7127108,27.3329217 Z M33.1892442,40.9993825 L25.3797892,40.9993825 L25.3797892,27.3329217 L33.1892442,27.3329217 L33.1892442,40.9993825 Z M5.8563225,27.3329217 L15.6180558,27.3329217 L15.6180558,40.9993825 L5.8563225,40.9993825 L5.8563225,27.3329217 Z M5.8563225,17.5711883 L5.8563225,7.80940375 L15.6180558,7.80940375 L15.6180558,17.5711883 L5.8563225,17.5711883 Z M38.0701108,1.95234667 C39.3639992,1.95408916 40.6046731,2.46876597 41.5198249,3.38348217 C42.4345497,4.29864253 42.9491838,5.53931644 42.9509775,6.83322187 C42.9509775,8.65781116 40.1680242,11.6164661 38.0701108,13.3845011 C35.9721975,11.6164661 33.1892442,8.65798199 33.1892442,6.83322187 C33.1909525,5.53931644 33.705672,4.29862545 34.6203113,3.38348217 C35.5355486,2.46874889 36.7762225,1.95413187 38.0701108,1.95234667 Z M56.6174383,51.737255 C56.6174383,51.9961523 56.5145969,52.2445433 56.3315495,52.4275907 C56.148502,52.6106382 55.900111,52.7134796 55.6412138,52.7134796 L2.9278025,52.7134796 C2.38873076,52.7134796 1.95162063,52.2763182 1.95162063,51.737255 L1.95162063,4.88087521 C1.95162063,4.34180346 2.38873076,3.90470187 2.9278025,3.90470187 L31.9051787,3.90470187 C31.6110045,4.52177592 31.4118133,5.18031111 31.3146094,5.85704854 L5.85598938,5.85704854 C5.33827175,5.85704854 4.84146406,6.06274843 4.47540333,6.42880916 C4.1093426,6.79486989 3.90364271,7.29167758 3.90364271,7.80940375 L3.90364271,40.9993825 C3.90364271,41.5170916 4.1093426,42.0138737 4.47540333,42.3799685 C4.84146406,42.745978 5.33827175,42.9516608 5.85598938,42.9516608 L52.7123692,42.9516608 C53.2300783,42.9516608 53.7269457,42.745978 54.0929552,42.3799685 C54.4590501,42.0138737 54.6647329,41.5170916 54.6647329,40.9993825 L54.6647329,7.80940375 C54.6647329,7.29167758 54.4590501,6.79486989 54.0929552,6.42880916 C53.7269457,6.06274843 53.2300783,5.85704854 52.7123692,5.85704854 L44.8250144,5.85704854 C44.7278105,5.1802684 44.5287047,4.52175029 44.2345305,3.90470187 L55.6407013,3.90470187 C55.8995131,3.90470187 56.1479895,4.00755182 56.3309516,4.19058218 C56.513999,4.37361255 56.6168404,4.62201212 56.6168404,4.88087521 L56.6174383,51.737255 Z" id="Shape" fill="#000000"></path>
                        <polygon id="Path" fill="#000000" points="12.6896383 21.4759158 16.5943658 21.4759158 16.5943658 23.4282796 12.6896383 23.4282796"></polygon>
                        <polygon id="Path" fill="#000000" points="8.78482542 21.4759158 10.7371892 21.4759158 10.7371892 23.4282796 8.78482542 23.4282796"></polygon>
                        <polygon id="Path" fill="#000000" points="19.5227833 14.6426854 21.4750617 14.6426854 21.4750617 18.5474129 19.5227833 18.5474129"></polygon>
                        <polygon id="Path" fill="#000000" points="19.5227833 10.7379579 21.4750617 10.7379579 21.4750617 12.6903217 19.5227833 12.6903217"></polygon>
                        <polygon id="Path" fill="#000000" points="19.5227833 26.3568679 21.4750617 26.3568679 21.4750617 30.2615954 19.5227833 30.2615954"></polygon>
                        <polygon id="Path" fill="#000000" points="19.5227833 32.2138737 21.4750617 32.2138737 21.4750617 36.1185158 19.5227833 36.1185158"></polygon>
                        <polygon id="Path" fill="#000000" points="24.4037354 21.4759158 28.3084629 21.4759158 28.3084629 23.4282796 24.4037354 23.4282796"></polygon>
                        <polygon id="Path" fill="#000000" points="30.2606558 21.4759158 34.1653833 21.4759158 34.1653833 23.4282796 30.2606558 23.4282796"></polygon>
                        <polygon id="Path" fill="#000000" points="36.1178325 21.4759158 40.02256 21.4759158 40.02256 23.4282796 36.1178325 23.4282796"></polygon>
                        <polygon id="Path" fill="#000000" points="41.9748383 21.4759158 45.8794804 21.4759158 45.8794804 23.4282796 41.9748383 23.4282796"></polygon>
                        <polygon id="Path" fill="#000000" points="37.0939717 26.3568679 39.0463354 26.3568679 39.0463354 30.2615954 37.0939717 30.2615954"></polygon>
                        <polygon id="Path" fill="#000000" points="37.0939717 32.2138737 39.0463354 32.2138737 39.0463354 36.1185158 37.0939717 36.1185158"></polygon>
                        <path d="M38.0701963,9.7615625 C38.8467172,9.7615625 39.5919757,9.45303829 40.1410326,8.90389595 C40.6900041,8.35483048 40.9986138,7.60958051 40.9986138,6.83310229 C40.9986138,6.05662407 40.6900895,5.31127161 40.1410326,4.76227447 C39.5918903,4.21326879 38.8466318,3.90463354 38.0701963,3.90463354 C37.2936753,3.90463354 36.5483314,4.21317483 35.9993599,4.76227447 C35.450303,5.31137411 35.1416933,6.05662407 35.1416933,6.83310229 C35.1416933,7.60958051 35.4502175,8.35493298 35.9993599,8.90389595 C36.5484168,9.45295287 37.2936753,9.7615625 38.0701963,9.7615625 Z M38.0701963,5.85686917 C38.4649911,5.85686917 38.8210068,6.09481377 38.9718523,6.45956762 C39.1230394,6.82432148 39.0397584,7.24398957 38.7604466,7.52334407 C38.4811348,7.80269856 38.0614838,7.8859198 37.6966701,7.73469852 C37.3319419,7.58391287 37.0939717,7.22787149 37.0939717,6.8330425 C37.0939717,6.29397076 37.531133,5.85686917 38.0701963,5.85686917 Z" id="Shape" fill="#FA8202"></path>
                    </g>
                </g>
            </g>
        </g>
    </g>
</svg>