<?xml version="1.0" encoding="UTF-8"?>
<svg width="59px" height="59px" viewBox="0 0 59 59" version="1.1" xmlns="http://www.w3.org/2000/svg" xmlns:xlink="http://www.w3.org/1999/xlink">
    <title>Group (1)</title>
    <g id="лендинг" stroke="none" stroke-width="1" fill="none" fill-rule="evenodd">
        <g id="Desktop-HD-Copy-8" transform="translate(-594.000000, -895.000000)" fill-rule="nonzero">
            <g id="Group-17" transform="translate(233.000000, 759.000000)">
                <g id="Group-14" transform="translate(341.000000, 105.000000)">
                    <g id="Group-(1)" transform="translate(20.000000, 31.000000)">
                        <path d="M57.6824442,56.7953496 L1.77507421,56.7953496 L1.77507421,50.9385156 L4.61473567,50.9385156 C5.14721368,50.9385156 5.50206073,50.5836593 5.50206073,50.0511444 C5.50206073,49.5186295 5.14721368,49.1638655 4.61473567,49.1638655 L1.77507421,49.1634045 L1.77507421,43.5725513 L4.61473567,43.5725513 C5.14721368,43.5725513 5.50206073,43.2176951 5.50206073,42.6852724 C5.50206073,42.1527575 5.14721368,41.7979012 4.61473567,41.7979012 L1.77507421,41.7979012 L1.77507421,36.207048 L4.61473567,36.207048 C5.14721368,36.207048 5.50206073,35.8521918 5.50206073,35.3197691 C5.50206073,34.7872542 5.14721368,34.4323979 4.61473567,34.4323979 L1.77507421,34.4323979 L1.77507421,28.8415448 L4.61473567,28.8415448 C5.14721368,28.8415448 5.50206073,28.4866885 5.50206073,27.9542658 C5.50206073,27.4217509 5.14721368,27.0668946 4.61473567,27.0668946 L1.77507421,27.0664337 L1.77507421,21.4756727 L4.61473567,21.4756727 C5.14721368,21.4756727 5.50206073,21.1208164 5.50206073,20.5883016 C5.50206073,20.0557867 5.14721368,19.7009304 4.61473567,19.7009304 L1.77507421,19.7009304 L1.77507421,14.1989526 L4.61473567,14.1989526 C5.14721368,14.1989526 5.50206073,13.8440964 5.50206073,13.3115815 C5.50206073,12.7791588 5.14721368,12.4243025 4.61473567,12.4243025 L1.77507421,12.4243025 L1.77507421,6.8334217 L4.61473567,6.8334217 C5.14721368,6.8334217 5.50206073,6.47857466 5.50206073,5.94609665 C5.50206073,5.41361863 5.14721368,5.05876237 4.61473567,5.05876237 L1.77507421,5.05834749 L1.77507421,0.887327825 C1.77507421,0.354848893 1.42022716,0 0.887749154,0 C0.355270221,0 0,0.355269299 0,0.887327825 L0,57.6826286 C0,58.2151434 0.354849815,58.5699075 0.887328747,58.5699075 L57.6826286,58.5699075 C58.2151434,58.5699075 58.57,58.2151434 58.57,57.6826286 C58.57,57.1505746 58.2151434,56.7952574 57.6830895,56.7952574 L57.6824442,56.7953496 Z" id="Path" fill="#010101"></path>
                        <path d="M20.6769004,29.1078944 C20.1444777,29.1078944 19.7896214,29.4627507 19.7896214,29.9951734 L19.7896214,53.8669787 C19.7896214,54.3994936 20.1444777,54.7543498 20.6769004,54.7543498 L25.8241141,54.7543498 C26.3566289,54.7543498 26.7114852,54.3994936 26.7114852,53.8669787 L26.7114852,29.9951734 C26.7114852,29.4627507 26.3566289,29.1078944 25.8241141,29.1078944 L20.6769004,29.1078944 Z M24.9367429,52.9796075 L21.5646403,52.9796075 L21.5642715,30.8826367 L24.9363741,30.8826367 L24.9367429,52.9796075 Z" id="Shape" fill="#FA8202"></path>
                        <path d="M10.471164,54.7543498 L15.6183777,54.7543498 C16.1508926,54.7543498 16.5057489,54.3994936 16.5057489,53.8670709 L16.5057489,40.9111754 C16.5057489,40.3787527 16.1508926,40.0238964 15.6183777,40.0238964 L10.471164,40.0238964 C9.93874134,40.0238964 9.58388507,40.3787527 9.58388507,40.9111754 L9.58388507,53.8670709 C9.58388507,54.3107104 10.0275246,54.7543498 10.471164,54.7543498 Z M11.358904,41.7985466 L14.7310066,41.7985466 L14.7310066,52.9806217 L11.358904,52.9806217 L11.358904,41.7985466 Z" id="Shape" fill="#FA8202"></path>
                        <path d="M30.881807,34.60978 C30.3492921,34.60978 29.9944358,34.9646362 29.9944358,35.4971511 L29.9944358,53.8667943 C29.9944358,54.399217 30.3492921,54.7540733 30.881807,54.7540733 L36.0290206,54.7540733 C36.5614433,54.7540733 36.9162996,54.399217 36.9162996,53.8667943 L36.9162996,35.4982575 C36.9162996,34.9657426 36.5614433,34.6108863 36.0290206,34.6108863 L30.881807,34.60978 Z M35.1411885,52.9794231 L31.7690859,52.9794231 L31.7690859,36.3846145 L35.1411885,36.3846145 L35.1411885,52.9794231 Z" id="Shape" fill="#FA8202"></path>
                        <path d="M40.9993133,54.754442 L46.1465269,54.754442 C46.6790418,54.754442 47.0338981,54.3995858 47.0338981,53.8670709 L47.0338981,28.0426802 C47.0338981,27.5102575 46.6790418,27.1554013 46.1465269,27.1554013 L40.9993133,27.1554013 C40.4668906,27.1554013 40.1120339,27.5102575 40.1120339,28.0426802 L40.1120339,53.8670709 C40.1115733,54.3107104 40.5556738,54.754442 40.9993133,54.754442 Z M41.8866844,28.9310655 L45.258787,28.9310655 L45.258787,52.9807139 L41.8866844,52.9807139 L41.8866844,28.9310655 Z" id="Shape" fill="#FA8202"></path>
                        <path d="M51.2039433,54.7545342 L56.3511569,54.7545342 C56.8836718,54.7545342 57.2385281,54.399678 57.2385281,53.8671631 L57.2385281,13.8445573 C57.2385281,13.3120425 56.8836718,12.9571862 56.3511569,12.9571862 L51.2039433,12.9571862 C50.6714284,12.9571862 50.3166643,13.3120425 50.3166643,13.8445573 L50.3166643,53.8671631 C50.3166643,54.3108026 50.7603038,54.7545342 51.2039433,54.7545342 Z M52.0916832,14.7318363 L55.4637858,14.7318363 L55.4637858,52.9796997 L52.0916832,52.9796997 L52.0916832,14.7318363 Z" id="Shape" fill="#FA8202"></path>
                        <path d="M24.4928268,26.6229786 C31.5034738,26.6229786 37.2718934,20.943711 37.2718934,13.8438198 C37.2718934,9.05192335 34.6095034,4.88091014 30.7049781,2.66172625 C28.8415448,1.6855811 26.8004528,1.06431066 24.5817022,1.06431066 C17.5710552,1.06431066 11.8026356,6.83273947 11.8026356,13.843451 C11.7142212,20.854098 17.482272,26.6225176 24.49338,26.6225176 L24.4928268,26.6229786 Z M13.4885026,14.7317441 L24.0488186,14.7317441 L30.6157339,22.9849873 C28.8410838,24.1388003 26.7112086,24.8485129 24.4036748,24.8485129 C18.7244994,24.8485129 14.0209252,20.4113805 13.4887791,14.7317441 L13.4885026,14.7317441 Z M35.4971511,13.8444652 C35.4971511,17.0392779 34.1660483,19.8789578 32.0362653,21.8311743 L25.5581332,13.7556819 L30.5275961,4.70392454 C33.5448424,6.65618718 35.4971511,10.0282621 35.4971511,13.8444652 Z M24.4928268,2.84008555 C26.0901871,2.84008555 27.5988564,3.1949787 29.0186502,3.8162768 L23.9604041,12.9563564 L13.4884104,12.9563564 C14.020833,7.2771626 18.7244072,2.84008555 24.4927346,2.84008555 L24.4928268,2.84008555 Z" id="Shape" fill="#010101"></path>
                    </g>
                </g>
            </g>
        </g>
    </g>
</svg>