<?xml version="1.0" encoding="UTF-8"?>
<svg width="59px" height="59px" viewBox="0 0 59 59" version="1.1" xmlns="http://www.w3.org/2000/svg" xmlns:xlink="http://www.w3.org/1999/xlink">
    <title>Group (4)</title>
    <g id="лендинг" stroke="none" stroke-width="1" fill="none" fill-rule="evenodd">
        <g id="Desktop-HD-Copy-8" transform="translate(-935.000000, -895.000000)">
            <rect fill="#FFFFFF" x="0" y="0" width="1440" height="4767"></rect>
            <g id="Group-17" transform="translate(233.000000, 759.000000)">
                <g id="Group-13-Copy-2" transform="translate(682.000000, 105.000000)">
                    <rect id="Rectangle" stroke="#CCCCCC" fill="#F6F5F3" x="0.5" y="0.5" width="291" height="120" rx="10"></rect>
                    <g id="Group-(4)" transform="translate(20.000000, 31.000000)" fill-rule="nonzero">
                        <path d="M27.1870043,50.6013685 L25.8931564,51.8952164 L27.7234689,53.7255289 C27.9015583,53.9040759 28.1361128,53.9939442 28.3702098,53.9939442 C28.6043068,53.9939442 28.8388613,53.9040759 29.0173168,53.7259865 L32.6779418,50.0653615 L31.3840939,48.771422 L28.3703013,51.7848485 L27.1870043,50.6013685 Z" id="Path" fill="#FF6B00"></path>
                        <polygon id="Path" fill="#FF6B00" points="19.2182813 12.8121875 28.3698438 12.8121875 28.3698438 14.6425 19.2182813 14.6425"></polygon>
                        <polygon id="Path" fill="#FF6B00" points="25.624375 23.7940625 34.7759375 23.7940625 34.7759375 25.624375 25.624375 25.624375"></polygon>
                        <polygon id="Path" fill="#FF6B00" points="25.624375 20.1334375 34.7759375 20.1334375 34.7759375 21.96375 25.624375 21.96375"></polygon>
                        <path d="M53.9942188,0 L37.5214062,0 C34.998229,0 32.945625,2.05256735 32.945625,4.57578125 L32.945625,12.8121875 L32.0304687,12.8121875 L32.0304687,11.8970312 C32.0304687,10.3832713 30.79876,9.1515625 29.285,9.1515625 L25.624375,9.1515625 L25.624375,4.57578125 C25.624375,2.05256735 23.571771,0 21.0485937,0 L4.57578125,0 C2.05256735,0 0,2.05256735 0,4.57578125 L0,39.3517188 C0,41.874896 2.05256735,43.9275 4.57578125,43.9275 L21.0485937,43.9275 C23.571771,43.9275 25.624375,41.874896 25.624375,39.3517188 L25.624375,39.1376637 L28.3698438,40.784945 L28.3698438,43.9908288 C24.7639451,44.4438312 21.96375,47.5223253 21.96375,51.24875 C21.96375,55.2856873 25.2480627,58.57 29.285,58.57 C33.3219372,58.57 36.60625,55.2856873 36.60625,51.24875 C36.60625,47.5223253 33.8060549,44.4435566 30.2001562,43.9908288 L30.2001562,40.784945 L32.945625,39.1376637 L32.945625,39.3517188 C32.945625,41.874896 34.998229,43.9275 37.5214062,43.9275 L53.9942188,43.9275 C56.517396,43.9275 58.57,41.874896 58.57,39.3517188 L58.57,4.57578125 C58.57,2.05256735 56.517396,0 53.9942188,0 Z M37.5214062,1.8303125 L53.9942188,1.8303125 C55.5079787,1.8303125 56.7396875,3.0620579 56.7396875,4.57578125 L56.7396875,5.4909375 L34.7759375,5.4909375 L34.7759375,4.57578125 C34.7759375,3.0620579 36.0076463,1.8303125 37.5214062,1.8303125 Z M34.7759375,7.32125 L56.7396875,7.32125 L56.7396875,36.60625 L54.909375,36.60625 L54.909375,34.7759375 C54.909375,31.9250428 53.0370568,29.5063763 50.4581465,28.6774278 C51.5069156,27.6768874 52.1639062,26.2694686 52.1639062,24.7092187 C52.1639062,21.6810582 49.7011293,19.2182813 46.6729687,19.2182813 C43.6448082,19.2182813 41.1820313,21.6810582 41.1820313,24.7092187 C41.1820313,26.2694686 41.8389304,27.676979 42.887791,28.6774278 C40.3090637,29.5063763 38.4365625,31.9250428 38.4365625,34.7759375 L38.4365625,36.60625 L34.7759375,36.60625 L34.7759375,29.285 L39.3517187,29.285 C39.6895944,29.285 39.9996494,29.0991318 40.1589781,28.801706 C40.3183983,28.5042802 40.3008273,28.142702 40.1132203,27.8628472 L38.4365625,25.3468996 L38.4365625,15.5575647 C38.4365625,14.0438963 37.2048537,12.812096 35.6910938,12.812096 L34.7759375,12.812096 L34.7759375,7.32125 Z M47.1519615,30.2001562 L46.6731518,31.3971806 L46.194342,30.2001562 L47.1519615,30.2001562 Z M46.6731518,28.3698437 C44.6545001,28.3698437 43.0125268,26.7278704 43.0125268,24.7092187 C43.0125268,22.6905671 44.6545001,21.0485937 46.6731518,21.0485937 C48.6918034,21.0485937 50.3337768,22.6905671 50.3337768,24.7092187 C50.3337768,26.7278704 48.6918034,28.3698437 46.6731518,28.3698437 Z M44.2472556,30.2606481 L45.8229716,34.2003042 C45.963082,34.5479721 46.2989444,34.7759375 46.6731518,34.7759375 C47.0473592,34.7759375 47.3832215,34.5479721 47.5233319,34.2003042 L49.0991395,30.2606481 C51.3388014,30.555969 53.0792455,32.4570231 53.0792455,34.7759375 L53.0792455,36.60625 L40.267058,36.60625 L40.267058,34.7759375 C40.267058,32.4570231 42.0075022,30.555969 44.2471641,30.2606481 L44.2472556,30.2606481 Z M35.6912768,14.642317 C36.1954364,14.642317 36.606433,15.05249 36.606433,15.5574732 L36.606433,25.624192 C36.606433,25.8043862 36.6603357,25.9820181 36.7600878,26.1320122 L37.6412917,27.4545045 L24.7098594,27.4545045 C24.2057913,27.4545045 23.7947031,27.0443314 23.7947031,26.5393482 L23.7947031,18.302942 L29.2856406,18.302942 C30.7994006,18.302942 32.0311094,17.0712332 32.0311094,15.5574732 L32.0311094,14.642317 L35.6912768,14.642317 Z M30.2003393,11.8968482 L30.2003393,15.5574732 C30.2003393,16.0624564 29.7893426,16.4726295 29.285183,16.4726295 L16.3537507,16.4726295 L17.2350461,15.1500457 C17.3347067,15.0001431 17.3886094,14.8224197 17.3886094,14.6422255 L17.3886094,11.8967567 C17.3886094,11.3917735 17.7996975,10.9816005 18.3037656,10.9816005 L29.2856406,10.9816005 C29.7898002,10.9816005 30.2007969,11.3917735 30.2007969,11.8967567 L30.2003393,11.8968482 Z M18.303308,9.15135201 C16.7896396,9.15135201 15.5578393,10.3830883 15.5578393,11.8968482 L15.5578393,14.3649331 L13.8811815,16.8799655 C13.693666,17.1611015 13.676095,17.5213985 13.8354237,17.8188243 C13.9947524,18.1170737 14.3048989,18.302942 14.6427745,18.302942 L21.9640245,18.302942 L21.9640245,26.5393482 C21.9640245,27.7307901 22.7316576,28.737462 23.794337,29.1165197 L23.794337,36.606067 L20.133712,36.606067 L20.133712,34.7757545 C20.133712,31.9248597 18.2613024,29.5062848 15.6824836,28.6772447 C16.7311611,27.6767044 17.3882433,26.2692856 17.3882433,24.7090357 C17.3882433,21.6808752 14.9254663,19.2180982 11.8973058,19.2180982 C8.86909037,19.2180982 6.40632254,21.6808752 6.40632254,24.7090357 C6.40632254,26.2692856 7.06326745,27.6767959 8.11207312,28.6772447 C5.53331839,29.5061933 3.66085379,31.9248597 3.66085379,34.7757545 L3.66085379,36.606067 L1.83054129,36.606067 L1.83054129,7.32109442 L23.794337,7.32109442 L23.794337,9.15140692 L18.303308,9.15135201 Z M11.8972143,28.3696607 C9.87856263,28.3696607 8.23660758,26.7276874 8.23660758,24.7090357 C8.23660758,22.6902925 9.87856263,21.0484107 11.8972143,21.0484107 C13.9158659,21.0484107 15.5578393,22.6902925 15.5578393,24.7090357 C15.5578393,26.7276874 13.9158659,28.3696607 11.8972143,28.3696607 Z M13.7275268,30.1999732 C16.2507956,30.1999732 18.303308,32.2524857 18.303308,34.7757545 L18.303308,36.606067 L5.49113883,36.606067 L5.49113883,34.7757545 C5.49113883,32.2524857 7.54370618,30.1999732 10.0669018,30.1999732 L13.7275268,30.1999732 Z M4.57598258,1.83010201 L21.0487768,1.83010201 C22.5625367,1.83010201 23.7942455,3.06184742 23.7942455,4.57557076 L23.7942455,5.49072701 L1.83051383,5.49072701 L1.83051383,4.57557076 C1.83051383,3.06184742 3.06225924,1.83010201 4.57598258,1.83010201 Z M21.0487768,42.0970045 L4.57598258,42.0970045 C3.06225924,42.0970045 1.83051383,40.8652042 1.83051383,39.3515357 L1.83051383,38.4363795 L23.7942455,38.4363795 L23.7942455,39.3515357 C23.7942455,40.8652042 22.5625367,42.0970045 21.0487768,42.0970045 Z M34.7761205,51.248567 C34.7761205,54.2767275 32.3133435,56.7395045 29.285183,56.7395045 C26.2570225,56.7395045 23.7942455,54.2767275 23.7942455,51.248567 C23.7942455,48.2204065 26.2570225,45.7576295 29.285183,45.7576295 C32.3133435,45.7576295 34.7761205,48.2204065 34.7761205,51.248567 Z M29.285183,39.1998943 L25.624558,37.0035193 L25.624558,29.2850915 L32.945808,29.2850915 L32.945808,37.0035193 L29.285183,39.1998943 Z M53.9944018,42.097279 L37.5215893,42.097279 C36.0079208,42.097279 34.7761205,40.8655702 34.7761205,39.3518103 L34.7761205,38.436654 L56.7398705,38.436654 L56.7398705,39.3518103 C56.7398705,40.8655702 55.5081617,42.097279 53.9944018,42.097279 Z" id="Shape" fill="#000000"></path>
                        <polygon id="Path" fill="#000000" points="10.981875 32.0304687 12.8121875 32.0304687 12.8121875 33.8607813 10.981875 33.8607813"></polygon>
                    </g>
                </g>
            </g>
        </g>
    </g>
</svg>