<?xml version="1.0" encoding="UTF-8"?>
<svg width="59px" height="55px" viewBox="0 0 59 55" version="1.1" xmlns="http://www.w3.org/2000/svg" xmlns:xlink="http://www.w3.org/1999/xlink">
    <title>Group (3)</title>
    <g id="лендинг" stroke="none" stroke-width="1" fill="none" fill-rule="evenodd">
        <g id="Desktop-HD-Copy-8" transform="translate(-253.000000, -1064.000000)" fill-rule="nonzero">
            <g id="Group-17" transform="translate(233.000000, 759.000000)">
                <g id="Group-13-Copy" transform="translate(0.000000, 256.000000)">
                    <g id="Group-(3)" transform="translate(20.000000, 49.000000)">
                        <path d="M14.2820822,54.5015092 C12.4287237,54.5028655 10.650148,53.7680242 9.33851955,52.4585178 C8.02692504,51.1485871 7.28943536,49.3714544 7.28809243,47.5176715 C7.28677849,45.6643129 8.02252804,43.8857373 9.3324079,42.5745332 C10.6427631,41.2634141 12.4203202,40.5262809 14.2736787,40.5259405 C16.1274616,40.5250076 17.9051036,41.2612071 19.2163076,42.5715623 C20.5270024,43.882257 21.2637111,45.659899 21.2637111,47.5137668 C21.2619285,49.3654276 20.5262384,51.1408626 19.2171565,52.4506236 C17.9085838,53.7605544 16.1336582,54.4980271 14.2819973,54.5015092 L14.2820822,54.5015092 Z M14.2820822,43.0435176 L14.2820822,43.0430932 C13.0948089,43.0430932 11.9561741,43.5147939 11.1170952,44.3542973 C10.2775919,45.1938006 9.80597606,46.3325202 9.80597606,47.5197087 C9.80597606,48.706982 10.2775919,49.8456168 11.1170952,50.6851201 C11.9561741,51.5246234 13.0948938,51.9962393 14.2820822,51.9962393 C15.4692706,51.9962393 16.6079903,51.5246234 17.4474936,50.6851201 C18.286997,49.8455319 18.7586128,48.7068971 18.7586128,47.5197087 C18.7586128,46.3324354 18.286997,45.1938006 17.4474936,44.3542973 C16.6079054,43.5147091 15.4692706,43.0430932 14.2820822,43.0430932 L14.2820822,43.0435176 Z" id="Shape" fill="#000000"></path>
                        <path d="M46.1078319,54.5015073 C44.2548978,54.5015073 42.4772558,53.7653928 41.1669855,52.4546132 C39.8565454,51.1441731 39.1204309,49.366616 39.1204309,47.5137668 C39.1204309,45.6604083 39.8566303,43.8826814 41.1669855,42.5724111 C42.4773407,41.2621408 44.2548978,40.5259414 46.1078319,40.5259414 C47.9611904,40.5259414 49.7388324,41.2621408 51.0491027,42.5724111 C52.359373,43.8827663 53.0956573,45.6604083 53.0956573,47.5137668 C53.0942992,49.3661916 52.3572509,51.1424754 51.0473201,52.4529155 C49.73688,53.7628463 47.9606811,54.4998945 46.1076621,54.5015073 L46.1078319,54.5015073 Z M46.1078319,43.0435176 L46.1078319,43.0430932 C44.920983,43.0430932 43.7823482,43.5147939 42.9428449,44.3542973 C42.1033416,45.1938006 41.6316409,46.3325202 41.6316409,47.5197087 C41.6316409,48.706982 42.1033416,49.8456168 42.9428449,50.6851201 C43.7823482,51.5246234 44.9210679,51.9962393 46.1078319,51.9962393 C47.2951052,51.9962393 48.43374,51.5246234 49.2732433,50.6851201 C50.1127466,49.8455319 50.5843625,48.7068971 50.5843625,47.5197087 C50.5843625,46.3324354 50.1127466,45.1938006 49.2732433,44.3542973 C48.4336551,43.5147091 47.2949354,43.0430932 46.1078319,43.0430932 L46.1078319,43.0435176 Z" id="Shape" fill="#000000"></path>
                        <polygon id="Path" fill="#000000" points="56.0588749 17.0443795 58.57 17.0443795 58.57 48.7691171 56.0588749 48.7691171"></polygon>
                        <path d="M25.0190667,46.7095752 L22.5079416,46.7095752 L22.5075172,24.5784338 C22.5075172,22.5805178 23.3015227,20.6640904 24.7144178,19.2511952 C26.1272281,17.8380454 28.0435706,17.0443795 30.041996,17.0443795 L57.3147345,17.0443795 L57.3147345,19.5555046 L30.041996,19.5555046 C28.7097407,19.5555046 27.4323205,20.0849264 26.4902772,21.0269697 C25.5482339,21.9685886 25.0192365,23.2460088 25.0192365,24.5782641 L25.0190667,46.7095752 Z" id="Path" fill="#000000"></path>
                        <path d="M4.99111461,47.5134273 L2.479998,47.5134273 L2.479998,33.6572932 L6.73684015,26.324414 L6.73639875,26.324414 C7.8570975,24.3837947 9.92685096,23.1874388 12.1672808,23.1852318 L23.7632071,23.1852318 L23.7632071,25.6963569 L12.1672808,25.6963569 C10.8228022,25.6976301 9.58128796,26.4154097 8.90900622,27.5799341 L4.99124193,34.3352621 L4.99111461,47.5134273 Z" id="Path" fill="#000000"></path>
                        <polygon id="Path" fill="#000000" points="2.47979428 46.2576525 9.80665513 46.2576525 9.80665513 48.7687776 2.47979428 48.7687776"></polygon>
                        <polygon id="Path" fill="#000000" points="19.6130557 46.2576525 38.9818152 46.2576525 38.9818152 48.7687776 19.6130557 48.7687776"></polygon>
                        <polygon id="Path" fill="#000000" points="51.3747179 46.2576525 58.5697453 46.2576525 58.5697453 48.7687776 51.3747179 48.7687776"></polygon>
                        <polygon id="Path" fill="#000000" points="4.97782176 32.8154131 23.7624431 32.8154131 23.7624431 35.3264533 4.97782176 35.3264533"></polygon>
                        <path d="M49.4856232,33.5754649 L29.8152707,33.5754649 C29.1215981,33.5754649 28.5592413,33.013108 28.5592413,32.3194355 C28.5592413,31.6261874 29.1215981,31.0638305 29.8152707,31.0638305 L49.4856232,31.0638305 C50.1792957,31.0638305 50.7411433,31.6261874 50.7411433,32.3194355 C50.7411433,33.013108 50.1792957,33.5754649 49.4856232,33.5754649 Z" id="Path" fill="#FA8202"></path>
                        <path d="M36.3010069,39.8538294 L29.8154404,39.8538294 C29.1217679,39.8538294 28.5594959,39.2915574 28.5594959,38.5978849 C28.5594959,37.9046368 29.1217679,37.3422799 29.8154404,37.3422799 L36.3010069,37.3422799 C36.994255,37.3422799 37.5566119,37.9046368 37.5566119,38.5978849 C37.5566119,39.2915574 36.994255,39.8538294 36.3010069,39.8538294 Z" id="Path" fill="#FA8202"></path>
                        <path d="M43.2072587,27.2971853 L29.8152707,27.2971853 C29.1215981,27.2971853 28.5592413,26.7348284 28.5592413,26.0411559 C28.5592413,25.3479078 29.1215981,24.7855509 29.8152707,24.7855509 L43.2072587,24.7855509 C43.9009313,24.7855509 44.4627788,25.3479078 44.4627788,26.0411559 C44.4627788,26.7348284 43.9009313,27.2971853 43.2072587,27.2971853 Z" id="Path" fill="#FA8202"></path>
                        <path d="M20.8126372,8.37346446 C21.5987485,7.62545765 22.1015168,6.62785776 22.2354638,5.55089127 C22.3694957,4.47355129 22.1259634,3.38351266 21.5470541,2.46552552 C21.4694701,2.33326767 21.3350137,2.24525139 21.1830713,2.22684853 C21.0329114,2.20626415 20.8818177,2.25750865 20.7749487,2.36481059 L18.7594616,4.3802722 L17.7736182,4.3802722 L17.7736182,3.39445421 L19.7891052,1.3789926 L19.7891052,1.379434 C19.8990301,1.26994205 19.9507245,1.11490981 19.9284,0.961626178 C19.9060755,0.80834679 19.8127879,0.674336932 19.6761246,0.600756884 C18.7595465,0.0844182783 17.6952702,-0.106959706 16.6560347,0.0572645471 C15.6167991,0.221050969 14.6633814,0.731257635 13.9499309,1.50464647 C13.2303687,2.17382995 12.7393993,3.05193006 12.5454393,4.01498214 C12.3519036,4.97801725 12.4653087,5.97786657 12.8704603,6.87298594 L11.4198767,8.32351019 L9.63705678,6.5274484 C10.1219145,4.78621323 9.64367774,2.91795755 8.38106133,1.62427358 C7.6295573,0.840354871 6.62929204,0.341136446 5.55109474,0.21186906 C4.47288045,0.0822436336 3.38281636,0.330989405 2.46707865,0.914761689 C2.33481231,0.990970597 2.24547184,1.12454415 2.22577874,1.27607068 C2.20607715,1.4276057 2.25817898,1.57956514 2.36678813,1.68686708 L4.38225823,3.70233718 L4.38225823,4.68814668 L3.39644025,4.68814668 L1.36830545,2.69152084 C1.25926339,2.58159599 1.10422265,2.52991857 0.950506114,2.55225157 C0.797224179,2.57414316 0.663214321,2.66786365 0.589634273,2.80450152 C0.0789908784,3.72199633 -0.107577066,4.78488055 0.0597185472,5.82148467 C0.227451823,6.85765588 0.738969099,7.80801779 1.51282056,8.51794561 C2.18112123,9.23835661 3.05920437,9.73008996 4.02270634,9.9237105 C4.98574145,10.1177555 5.98604065,10.0034166 6.88070165,9.59792548 L8.51947327,11.2366122 L2.73071156,17.0122933 C2.63743247,17.1042227 2.58531365,17.229936 2.58531365,17.3609121 C2.58531365,17.4918882 2.63742398,17.6175166 2.73071156,17.709531 L4.94058313,19.9194025 C5.03254652,20.0126901 5.15823434,20.0648089 5.28918498,20.0648089 C5.42013561,20.0648089 5.54582344,20.0126901 5.63779531,19.9194025 L11.4199615,14.1372703 L17.013821,19.7122854 C17.1062597,19.805573 17.2314637,19.8576918 17.3624398,19.8576918 C17.4934159,19.8576918 17.6190443,19.805573 17.7110586,19.7122854 L19.9147337,17.5024139 C20.0075968,17.41006 20.06014,17.2847711 20.06014,17.153795 C20.06014,17.0229038 20.0075968,16.8971905 19.9147337,16.8052611 L14.3208742,11.2113168 L15.9154213,9.66676646 C17.6614863,10.1397404 19.5276624,9.64698847 20.8125523,8.37349841 L20.8126372,8.37346446 Z" id="Path" fill="#FA8202"></path>
                    </g>
                </g>
            </g>
        </g>
    </g>
</svg>