<?xml version="1.0" encoding="UTF-8"?>
<svg width="59px" height="59px" viewBox="0 0 59 59" version="1.1" xmlns="http://www.w3.org/2000/svg" xmlns:xlink="http://www.w3.org/1999/xlink">
    <title>Group (2)</title>
    <g id="лендинг" stroke="none" stroke-width="1" fill="none" fill-rule="evenodd">
        <g id="Desktop-HD-Copy-8" transform="translate(-594.000000, -1061.000000)" fill-rule="nonzero">
            <g id="Group-17" transform="translate(233.000000, 759.000000)">
                <g id="Group-15" transform="translate(341.000000, 256.000000)">
                    <g id="Group-(2)" transform="translate(20.000000, 46.000000)">
                        <path d="M36.0330808,18.5361133 L39.2257231,18.5361133 C39.5265451,19.0603694 40.0543478,19.4147538 40.6539004,19.4943243 C41.2529982,19.5738948 41.8556426,19.3700124 42.28305,18.942605 C42.7104574,18.5151976 42.9143399,17.9126441 42.8347693,17.3134553 C42.7551988,16.7139028 42.4009054,16.1861001 41.8765583,15.8851871 L41.8765583,10.7448402 C41.8765583,10.2070344 41.4404209,9.77089696 40.9026151,9.77089696 C40.3648093,9.77089696 39.9287628,10.2070344 39.9287628,10.7448402 L39.9287628,15.8851871 C39.6373983,16.054786 39.395231,16.2969532 39.2257231,16.5882268 L36.0330808,16.5882268 C35.4952749,16.5882268 35.0592285,17.0243642 35.0592285,17.5621701 C35.0592285,18.0999759 35.4952749,18.5360224 36.0330808,18.5360224 L36.0330808,18.5361133 Z" id="Path" fill="#FA8202"></path>
                        <path d="M58.2089772,34.518149 C57.7693841,33.5824905 56.9784985,32.8581714 56.0077381,32.5025139 C55.0547106,32.150403 54.0012877,32.1890515 53.0764509,32.6095476 L41.8771949,37.0502195 L41.8771949,37.0406711 C41.8724661,36.3468161 41.6806784,35.6672383 41.32202,35.0733239 C47.0701948,34.9390089 52.3870518,31.9959907 55.5531403,27.1963875 C58.7191379,22.3969662 59.3317855,16.3509702 57.1926569,11.0141069 C55.0535284,5.67728894 50.4344366,1.72770812 44.8303072,0.443390724 C39.2259959,-0.840929401 33.3483257,0.703382644 29.098714,4.57594192 C24.8491933,8.44849847 22.7675374,14.1584612 23.5275041,19.8578025 C24.2874708,25.5567799 27.7922115,30.521617 32.9081871,33.14508 L29.0513355,33.14508 C28.7913445,33.1442616 28.542175,33.0390466 28.3600267,32.852897 L28.1261349,32.6190052 C27.2118468,31.7116283 25.9766394,31.200831 24.6883244,31.1973754 L20.7635423,31.1973754 C18.4353542,31.1912826 16.2011047,32.1169379 14.5597694,33.7686401 L10.7223785,37.6154886 L10.4302864,37.3233056 C10.2445916,37.1437945 9.99724089,37.0424898 9.7389777,37.040762 C9.478532,37.0415805 9.22981727,37.1467954 9.04766897,37.3328541 L6.82685104,39.5632841 L6.53467716,39.2711011 C6.3385972,39.0772219 6.06990345,38.9746441 5.79468946,38.9884666 C5.52122147,38.9984698 5.26556819,39.1263282 5.09339576,39.3389407 L0.223909642,45.1823273 C0.0786930678,45.3575643 0,45.5783612 0,45.8057965 L0,57.4925697 C0,57.7508329 0.102609604,57.9986383 0.285214412,58.1812413 C0.467820131,58.3638442 0.71564458,58.466422 0.97389777,58.466422 L17.5301599,58.466422 C17.7884231,58.4646942 18.0357737,58.3633896 18.2214686,58.1838784 L21.1431164,55.2621397 C21.5231453,54.8795646 21.5231453,54.2621882 21.1431164,53.8795222 L20.8509335,53.5874302 L23.0813635,51.3670033 L23.0813635,51.3665486 C23.2670584,51.1853097 23.3726371,50.9370496 23.3743649,50.6774224 C23.3761837,50.4174314 23.2744243,50.1678982 23.090912,49.9840221 L22.8082775,49.7113907 L24.8731099,47.6370098 L24.8735646,47.6366461 C25.417827,47.0844721 26.1626071,46.7757385 26.9378514,46.7796488 L38.1861228,46.7796488 C38.8213229,46.7801035 39.4504303,46.6544275 40.036524,46.409714 L56.3201093,39.699327 C56.990957,39.3828636 57.5578629,38.8828879 57.9560793,38.2572362 C58.3543866,37.6315845 58.5669991,36.9059013 58.57,36.1641222 C58.5687269,35.5959431 58.4456881,35.0350391 58.2096137,34.518149 L58.2089772,34.518149 Z M25.3201598,17.562261 C25.3201598,13.4297771 26.9618589,9.46634645 29.8840524,6.54377105 C32.8066096,3.62163214 36.7699493,1.97992395 40.9025241,1.97992395 C45.035099,1.97992395 48.9984387,3.62163214 51.9210868,6.54377105 C54.8431894,9.46634645 56.4848885,13.4297771 56.4848885,17.562261 C56.4848885,21.6948358 54.8431894,25.6581755 51.9210868,28.5808237 C48.9984387,31.5029262 45.035099,33.1446253 40.9025241,33.1446253 C36.7713134,33.1394419 32.8114293,31.4960149 29.8901452,28.5746399 C26.9688611,25.6533558 25.3254342,21.6934718 25.3201598,17.562261 Z M17.1298519,56.5181718 L1.94707713,56.5181718 L1.94707713,46.1557249 L5.91088971,41.4032275 L19.0780112,54.5702853 L17.1298519,56.5181718 Z M19.4672247,52.2134518 L8.19893791,40.9451741 L9.73761363,39.396959 L20.7426266,50.4019719 L20.7521751,50.4019719 L21.015258,50.6746033 L19.4672247,52.2134518 Z M55.5404091,37.9166744 L39.2957451,44.6074189 C38.943998,44.7543743 38.5666973,44.8303982 38.1853953,44.8313076 L26.9371239,44.8313076 C25.6423523,44.8256695 24.3997789,45.3417412 23.4897649,46.2629405 L21.4350266,48.3277729 L12.0951746,38.9979241 L15.9419322,35.1415272 L15.9419322,35.1410725 C17.2166975,33.8572135 18.9532446,33.1380778 20.7627238,33.1444913 L24.6875059,33.1444913 C25.4592036,33.1449891 26.1987094,33.4536318 26.7422443,34.0014407 L26.9761361,34.2353326 C27.5261276,34.7857788 28.2726356,35.0940577 29.050517,35.0923299 L37.9811491,35.0923299 C38.6772776,35.0923299 39.3202983,35.4636287 39.6680443,36.0661822 C40.0158811,36.6688266 40.0158811,37.4114243 39.6680443,38.0139778 C39.3202983,38.6166222 38.6772776,38.987921 37.9811491,38.987921 L31.1639102,38.987921 C30.6261044,38.987921 30.189967,39.4239675 30.189967,39.9617733 C30.189967,40.4995791 30.6261044,40.9357165 31.1639102,40.9357165 L37.9811491,40.9357165 C39.1468801,40.9308968 40.2484999,40.4013663 40.9806397,39.4944442 L53.8461479,34.4010212 L53.8466026,34.4010212 C54.313568,34.1796787 54.8500097,34.1535796 55.3361629,34.3292713 C55.8226798,34.504963 56.2187137,34.8670771 56.4369643,35.3357703 C56.5604577,35.5940334 56.6234776,35.8771226 56.6222234,36.1635765 C56.6231138,36.5275094 56.5221729,36.88444 56.3313856,37.1939921 C56.1405072,37.5039989 55.8666027,37.7539867 55.5409547,37.9165834 L55.5404091,37.9166744 Z" id="Shape" fill="#000000"></path>
                        <path d="M40.9026151,3.92791046 C37.2865666,3.92791046 33.8183829,5.36438126 31.2613955,7.92133237 C28.7044989,10.4783017 27.2680463,13.9464854 27.2680463,17.5624429 C27.2680463,21.1784913 28.7044989,24.646675 31.2613955,27.2036625 C33.8183829,29.760559 37.2865666,31.1970116 40.9026151,31.1970116 C44.5185726,31.1970116 47.9867563,29.760559 50.5437438,27.2036625 C53.1006403,24.646675 54.5371839,21.1784913 54.5371839,17.5624429 C54.5331826,13.9476675 53.0954569,10.4817573 50.5393788,7.9256701 C47.9833007,5.36961018 44.5173904,3.9318026 40.9026151,3.92791046 Z M51.4598506,22.538829 L50.6711476,22.071409 L50.6706929,22.071409 C50.2029091,21.8027789 49.6055391,21.9640116 49.3364543,22.4318862 C49.0677332,22.89967 49.2290568,23.49704 49.6968406,23.7661248 L50.4955468,24.2239964 C49.6960221,25.363901 48.7042551,26.355668 47.5642595,27.1552836 L47.1064789,26.3565774 C46.8373032,25.8887027 46.2399332,25.7274701 45.7721494,25.9961002 C45.3043656,26.2652759 45.1430421,26.862646 45.4117631,27.3304297 L45.8790922,28.1191328 L45.8790922,28.1194965 C44.6208776,28.7177759 43.2652686,29.084346 41.8765583,29.2003825 L41.8765583,28.2751819 C41.8765583,27.7373761 41.4405118,27.3013296 40.902706,27.3013296 C40.3649002,27.3013296 39.9287628,27.7373761 39.9287628,28.2751819 L39.9287628,29.2003825 C38.5400525,29.084255 37.1845345,28.7177759 35.9262289,28.1194965 L36.393558,27.3308844 L36.393558,27.3304297 C36.662279,26.862646 36.5009555,26.265185 36.0331717,25.9961002 C35.5653879,25.7274701 34.967927,25.8887027 34.6988422,26.3565774 L34.2410616,27.1552836 C33.101066,26.355668 32.1093899,25.363901 31.3097743,24.2239964 L32.1084805,23.7661248 C32.5762643,23.49704 32.7375879,22.89967 32.4688668,22.4318862 C32.199782,21.9640116 31.602412,21.8027789 31.1346282,22.071409 L30.3459252,22.538829 L30.3454705,22.538829 C29.747282,21.2805235 29.380712,19.9250055 29.2646754,18.5362952 L30.189876,18.5362952 C30.7276818,18.5362952 31.1637283,18.1001577 31.1637283,17.5623519 C31.1637283,17.0245461 30.7276818,16.5884996 30.189876,16.5884996 L29.2646754,16.5884996 C29.380712,15.1996984 29.747282,13.8441804 30.3454705,12.5858748 L31.1341736,13.0532948 L31.1346282,13.0532948 C31.602412,13.3220159 32.199782,13.1606923 32.4688668,12.6929085 C32.7375879,12.2250339 32.5762643,11.6276638 32.1084805,11.358579 L31.3097743,10.9007075 C32.109299,9.76080287 33.101066,8.7690813 34.2410616,7.9694839 L34.6988422,8.76816283 C34.9680179,9.23600115 35.5653879,9.3973247 36.0331717,9.12860367 C36.5009555,8.85947342 36.662279,8.26208519 36.393558,7.79430143 L35.9262289,7.00562566 L35.9262289,7.00518916 C37.1845345,6.40693702 38.5400525,6.04042154 39.9287628,5.92433951 L39.9287628,6.84954012 C39.9287628,7.38735503 40.3649002,7.82343789 40.902706,7.82343789 C41.4405118,7.82343789 41.8765583,7.38735503 41.8765583,6.84954012 L41.8765583,5.92433951 C43.2652686,6.04043063 44.6208776,6.40693702 45.8790922,7.00518916 L45.4117631,7.79386493 L45.4117631,7.79430143 C45.1430421,8.26212156 45.3043656,8.8595007 45.7721494,9.12860367 C46.2400241,9.3973247 46.8373941,9.23600115 47.1064789,8.76816283 L47.5642595,7.9694839 C48.7042551,8.76903583 49.6959312,9.76080287 50.4955468,10.9007075 L49.6968406,11.358579 C49.2290568,11.6276638 49.0677332,12.2251248 49.3364543,12.6929085 C49.6055391,13.1606923 50.2029091,13.3220159 50.6706929,13.0532948 L51.4593959,12.5858748 L51.4598506,12.5858748 C52.05813,13.8441804 52.4246091,15.1996984 52.5407366,16.5884996 L51.615536,16.5884996 C51.0776393,16.5884996 50.6415928,17.0245461 50.6415928,17.5623519 C50.6415928,18.1001577 51.0776393,18.5362952 51.615536,18.5362952 L52.5407366,18.5362952 C52.4246091,19.9250055 52.05813,21.2805235 51.4598506,22.538829 Z" id="Shape" fill="#FA8202"></path>
                    </g>
                </g>
            </g>
        </g>
    </g>
</svg>