<?xml version="1.0" encoding="UTF-8"?>
<svg width="59px" height="60px" viewBox="0 0 59 60" version="1.1" xmlns="http://www.w3.org/2000/svg" xmlns:xlink="http://www.w3.org/1999/xlink">
    <title>Group (5)</title>
    <g id="лендинг" stroke="none" stroke-width="1" fill="none" fill-rule="evenodd">
        <g id="Desktop-HD-Copy-8" transform="translate(-935.000000, -1061.000000)" fill-rule="nonzero">
            <g id="Group-17" transform="translate(233.000000, 759.000000)">
                <g id="Group-13-Copy-3" transform="translate(682.000000, 256.000000)">
                    <g id="Group-(5)" transform="translate(20.000000, 46.000000)">
                        <path d="M0,59.2702269 L58.57,59.2702269 L58.57,0 L0,0 L0,59.2702269 Z M1.50177985,1.50121218 L57.0670938,1.50121218 L57.0670938,57.7175812 L1.50177985,57.7175812 L1.50177985,1.50121218 Z" id="Shape" fill="#000000"></path>
                        <path d="M26.0307607,14.0669822 L22.2763336,14.0669822 L22.2763336,26.081221 L26.0307607,26.081221 L26.0307607,14.0669822 Z M24.5289358,24.5793961 L23.7780684,24.5793961 L23.7780684,15.568717 L24.5289358,15.568717 L24.5289358,24.5793961 Z" id="Shape" fill="#FA8202"></path>
                        <path d="M20.7743285,19.1219336 L17.0199014,19.1219336 L17.0199014,26.0801397 L20.7743285,26.0801397 L20.7743285,19.1219336 Z M19.2725036,24.578495 L18.5216362,24.578495 L18.5216362,20.6238486 L19.2725036,20.6238486 L19.2725036,24.578495 Z" id="Shape" fill="#FA8202"></path>
                        <path d="M15.5682664,5.95687537 L11.8138393,5.95687537 L11.8138393,26.0813111 L15.5682664,26.0813111 L15.5682664,5.95687537 Z M14.0665316,24.5789456 L13.3155741,24.5789456 L13.3155741,7.45923191 L14.0665316,7.45923191 L14.0665316,24.5789456 Z" id="Shape" fill="#FA8202"></path>
                        <path d="M10.311654,10.1617148 L6.55722688,10.1617148 L6.55722688,26.0800496 L10.311654,26.0800496 L10.311654,10.1617148 Z M8.80983809,24.5788554 L8.05895267,24.5788554 L8.05895267,11.662999 L8.80983809,11.662999 L8.80983809,24.5788554 Z" id="Shape" fill="#FA8202"></path>
                        <path d="M28.1327028,27.6833358 L4.85485829,27.6833358 L4.85485829,3.7555084 C4.85485829,3.35503377 4.5044475,3.00461397 4.10397287,3.00461397 C3.70349824,3.00461397 3.35307844,3.35503377 3.35307844,3.7555084 L3.35307844,29.1856112 L28.1825324,29.1856112 C28.582971,29.1856112 28.9333998,28.8352725 28.9333998,28.4347438 C28.9333998,28.0343052 28.582971,27.6838764 28.1324325,27.6838764 L28.1327028,27.6833358 Z" id="Path" fill="#000000"></path>
                        <path d="M51.5102425,40.1972218 C51.5102425,40.4976408 51.6103522,40.7478699 51.7104618,40.9480892 L48.4064831,44.3521776 C48.156254,44.201968 47.8058252,44.1018584 47.5054962,44.1018584 C47.1049676,44.1018584 46.7545387,44.201968 46.4542098,44.4021873 L43.4506501,41.6990467 C43.4506501,41.598937 43.50075,41.4988274 43.50075,41.4487275 C43.50075,40.4976408 42.6496828,39.6966735 41.6484962,39.6966735 C40.6472196,39.6966735 39.7962425,40.4976408 39.7962425,41.4487275 C39.7962425,41.5488371 39.7962425,41.6489468 39.8462523,41.6990467 L37.1430215,44.1018584 C37.0429119,44.1018584 36.8927925,44.0518486 36.7425829,44.0518486 C35.6912965,44.0518486 34.8903292,44.8527258 34.8903292,45.8038125 C34.8903292,46.7548992 35.7413063,47.5558664 36.7425829,47.5558664 C37.7438596,47.5558664 38.5948367,46.7548992 38.5948367,45.8038125 C38.5948367,45.5034835 38.494727,45.2531644 38.3445175,45.0028452 L40.6972293,42.9003624 C40.9976484,43.0505719 41.2979773,43.1506816 41.6484061,43.1506816 C41.998835,43.1506816 42.2991639,43.0505719 42.5994928,42.9003624 L45.7031622,45.653603 L45.7031622,45.8038125 C45.7031622,46.7548992 46.5542293,47.5558664 47.5554159,47.5558664 C48.5566926,47.5558664 49.4076696,46.7548091 49.4076696,45.8038125 C49.4076696,45.7036127 49.4076696,45.6035031 49.3576599,45.5033934 L52.9619676,41.7990662 C53.112087,41.849076 53.2622965,41.849076 53.4124159,41.849076 C54.4637024,41.849076 55.2646696,41.0481087 55.2646696,40.0971121 C55.2646696,39.1460254 54.4136926,38.3450581 53.4124159,38.3450581 C52.4112293,38.3450581 51.5102425,39.2461351 51.5102425,40.1973119 L51.5102425,40.1972218 Z" id="Path" fill="#FA8202"></path>
                        <path d="M54.5641724,54.6645524 L33.7394738,54.6645524 L33.7394738,33.2895661 C33.7394738,32.8890374 33.389045,32.5386086 32.9886064,32.5386086 C32.5880777,32.5386086 32.237739,32.8890374 32.237739,33.2895661 L32.237739,56.166918 L54.5636318,56.166918 C54.9640704,56.166918 55.3144992,55.8164891 55.3144992,55.4160506 C55.3144992,55.015612 54.9640704,54.6651832 54.5636318,54.6651832 L54.5641724,54.6645524 Z" id="Path" fill="#000000"></path>
                        <path d="M33.0379854,17.0201717 C33.0379854,22.5767526 37.54337,27.0821372 43.1000411,27.0821372 C48.656622,27.0821372 53.1620066,22.5768427 53.1620066,17.0201717 C53.1620066,11.4635907 48.656622,6.95821512 43.1000411,6.95821512 L42.3490836,6.95821512 L42.3490836,16.2692142 L33.0379854,16.2692142 L33.0379854,17.0201717 Z M43.8007185,17.7711292 L43.8007185,8.5100498 C48.1558035,8.91052442 51.6099917,12.5648869 51.6099917,17.0201717 C51.6099917,21.7256855 47.7553649,25.5802222 43.0498511,25.5802222 C38.5945663,25.5802222 34.9402489,22.126034 34.5398103,17.770949 L43.8007185,17.7711292 Z" id="Shape" fill="#000000"></path>
                        <path d="M41.1481282,4.30519236 L40.3971707,4.30519236 C34.8406799,4.30519236 30.3352052,8.81053192 30.3352052,14.367221 L30.3352052,15.1180884 L41.1481282,15.1180884 L41.1481282,4.30519236 Z M39.6463033,13.6162635 L31.88722,13.6162635 C32.2375588,9.51140757 35.5415375,6.20744684 39.6463033,5.85709011 L39.6463033,13.6162635 Z" id="Shape" fill="#000000"></path>
                        <polygon id="Path" fill="#FA8202" points="5.10551987 38.0955499 25.7299812 38.0955499 25.7299812 39.5973748 5.10551987 39.5973748"></polygon>
                        <polygon id="Path" fill="#000000" points="5.10551987 41.6998576 25.7299812 41.6998576 25.7299812 43.2016825 5.10551987 43.2016825"></polygon>
                        <polygon id="Path" fill="#000000" points="5.10551987 45.3041653 25.7299812 45.3041653 25.7299812 46.8059902 5.10551987 46.8059902"></polygon>
                        <polygon id="Path" fill="#000000" points="5.10551987 48.9080225 25.7299812 48.9080225 25.7299812 50.4098474 5.10551987 50.4098474"></polygon>
                    </g>
                </g>
            </g>
        </g>
    </g>
</svg>