<?xml version="1.0" encoding="UTF-8"?>
<svg width="70px" height="70px" viewBox="0 0 70 70" version="1.1" xmlns="http://www.w3.org/2000/svg" xmlns:xlink="http://www.w3.org/1999/xlink">
    <title>Group 5</title>
    <g id="лендинг" stroke="none" stroke-width="1" fill="none" fill-rule="evenodd">
        <g id="Desktop-HD-Copy-10" transform="translate(-187.000000, -545.000000)" fill="#FD8200">
            <g id="Group-27" transform="translate(142.000000, 459.000000)">
                <g id="Group-5" transform="translate(45.000000, 86.000000)">
                    <path d="M35,0 C54.3299662,0 70,15.6700338 70,35 C70,54.3299662 54.3299662,70 35,70 C15.6700338,70 0,54.3299662 0,35 C0,15.6700338 15.6700338,0 35,0 Z M43.0610236,29.5570866 L43.0610236,53.7401575 L54.3602362,53.7401575 L54.5703455,53.7207978 C55.2612199,53.6334895 55.857194,53.3184204 56.3582677,52.7755906 C56.9094488,52.1784777 57.1620735,51.558399 57.1161417,50.9153543 L57.1161417,50.9153543 L57.1161417,34.7244094 L57.0940264,34.4845436 C57.0169065,33.8585107 56.7946194,33.3413532 56.4271654,32.9330709 C56.0137795,32.4737533 55.4396325,32.152231 54.7047244,31.9685039 L54.7047244,31.9685039 L43.0610236,29.5570866 Z M20.4608071,14.3652953 L20.4173849,14.3678184 C19.5738201,14.4206269 18.8851585,14.6923579 18.3500496,15.1828744 C17.8055538,15.6819955 17.5109042,16.3166255 17.4655512,17.0866142 L17.4655512,17.0866142 L17.4655512,52.1555118 C17.4655512,52.4687626 17.6005938,52.8063692 17.8720472,53.1683071 C18.141132,53.5270867 18.4983758,53.7057087 18.9468504,53.7057087 L18.9468504,53.7057087 L24.4242126,53.7057087 L24.4245588,44.7785928 C24.5154672,44.142234 24.8064146,43.5506682 25.2966802,43.0044094 L25.2966802,43.0044094 L25.3289366,42.9688481 C25.8407931,42.4104591 26.4930849,42.1309055 27.2834646,42.1309055 L27.2834646,42.1309055 L31.6263072,42.1309818 C32.323272,42.1774461 32.9506969,42.4563016 33.5075299,42.9667319 C34.0651038,43.4778413 34.367759,44.0831518 34.4143701,44.7834646 L34.4143701,44.7834646 L34.4143701,53.7057087 L41.3730315,53.7057087 L41.3733777,19.7784938 C41.2846784,19.1575982 41.0447594,18.6018452 40.6533515,18.1106522 L40.6533515,18.1106522 L40.6229444,18.0729954 C40.2153787,17.5748595 39.7187085,17.3039485 39.1285823,17.2584519 L39.1285823,17.2584519 L20.4608071,14.3652953 Z M51.1220472,46.2992126 C51.8110236,46.4370079 52.1555118,46.8503937 52.1555118,47.5393701 C52.1555118,48.2283465 51.8110236,48.6417323 51.1220472,48.7795276 L51.1220472,48.7795276 L48.2972441,48.7795276 L48.1453881,48.7457818 C47.5117173,48.5812711 47.1948819,48.1791339 47.1948819,47.5393701 C47.1948819,46.8503937 47.562336,46.4370079 48.2972441,46.2992126 L48.2972441,46.2992126 Z M51.1220472,41.3385827 C51.8110236,41.476378 52.1555118,41.8897638 52.1555118,42.5787402 C52.1555118,43.2677165 51.8110236,43.6811024 51.1220472,43.8188976 L51.1220472,43.8188976 L48.2972441,43.8188976 L48.1453881,43.7851519 C47.5117173,43.6206412 47.1948819,43.2185039 47.1948819,42.5787402 C47.1948819,41.8897638 47.562336,41.476378 48.2972441,41.3385827 L48.2972441,41.3385827 Z M51.1220472,36.3779528 C51.8110236,36.515748 52.1555118,36.9291339 52.1555118,37.6181102 C52.1555118,38.3070866 51.8110236,38.7204724 51.1220472,38.8582677 L51.1220472,38.8582677 L48.2972441,38.8582677 L48.1453881,38.8245219 C47.5117173,38.6600112 47.1948819,38.257874 47.1948819,37.6181102 C47.1948819,36.9291339 47.562336,36.515748 48.2972441,36.3779528 L48.2972441,36.3779528 Z M26.7322835,35.9645669 C27.4212598,36.1023622 27.765748,36.515748 27.765748,37.2047244 C27.765748,37.8937008 27.4212598,38.3070866 26.7322835,38.4448819 L26.7322835,38.4448819 L23.9074803,38.4448819 L23.7556243,38.4111361 C23.1219535,38.2466254 22.8051181,37.8444882 22.8051181,37.2047244 C22.8051181,36.515748 23.1725722,36.1023622 23.9074803,35.9645669 L23.9074803,35.9645669 Z M35,35.9645669 C35.6889764,36.1023622 36.0334646,36.515748 36.0334646,37.2047244 C36.0334646,37.8937008 35.6889764,38.3070866 35,38.4448819 L35,38.4448819 L32.1751969,38.4448819 L32.0233408,38.4111361 C31.38967,38.2466254 31.0728346,37.8444882 31.0728346,37.2047244 C31.0728346,36.515748 31.4402887,36.1023622 32.1751969,35.9645669 L32.1751969,35.9645669 Z M26.7322835,31.003937 C27.4212598,31.1417323 27.765748,31.5551181 27.765748,32.2440945 C27.765748,32.9330709 27.4212598,33.3464567 26.7322835,33.484252 L26.7322835,33.484252 L23.9074803,33.484252 L23.7556243,33.4505062 C23.1219535,33.2859955 22.8051181,32.8838583 22.8051181,32.2440945 C22.8051181,31.5551181 23.1725722,31.1417323 23.9074803,31.003937 L23.9074803,31.003937 Z M35,31.003937 C35.6889764,31.1417323 36.0334646,31.5551181 36.0334646,32.2440945 C36.0334646,32.9330709 35.6889764,33.3464567 35,33.484252 L35,33.484252 L32.1751969,33.484252 L32.0233408,33.4505062 C31.38967,33.2859955 31.0728346,32.8838583 31.0728346,32.2440945 C31.0728346,31.5551181 31.4402887,31.1417323 32.1751969,31.003937 L32.1751969,31.003937 Z M26.7322835,26.0433071 C27.4212598,26.1811024 27.765748,26.5944882 27.765748,27.2834646 C27.765748,27.9724409 27.4212598,28.3858268 26.7322835,28.523622 L26.7322835,28.523622 L23.9074803,28.523622 L23.7556243,28.4898763 C23.1219535,28.3253656 22.8051181,27.9232283 22.8051181,27.2834646 C22.8051181,26.5944882 23.1725722,26.1811024 23.9074803,26.0433071 L23.9074803,26.0433071 Z M35,26.0433071 C35.6889764,26.1811024 36.0334646,26.5944882 36.0334646,27.2834646 C36.0334646,27.9724409 35.6889764,28.3858268 35,28.523622 L35,28.523622 L32.1751969,28.523622 L32.0233408,28.4898763 C31.38967,28.3253656 31.0728346,27.9232283 31.0728346,27.2834646 C31.0728346,26.5944882 31.4402887,26.1811024 32.1751969,26.0433071 L32.1751969,26.0433071 Z M26.7322835,21.0826772 C27.4212598,21.2204724 27.765748,21.6338583 27.765748,22.3228346 C27.765748,23.011811 27.4212598,23.4251969 26.7322835,23.5629921 L26.7322835,23.5629921 L23.9074803,23.5629921 L23.7556243,23.5292463 C23.1219535,23.3647357 22.8051181,22.9625984 22.8051181,22.3228346 C22.8051181,21.6338583 23.1725722,21.2204724 23.9074803,21.0826772 L23.9074803,21.0826772 Z M35,21.0826772 C35.6889764,21.2204724 36.0334646,21.6338583 36.0334646,22.3228346 C36.0334646,23.011811 35.6889764,23.4251969 35,23.5629921 L35,23.5629921 L32.1751969,23.5629921 L32.0233408,23.5292463 C31.38967,23.3647357 31.0728346,22.9625984 31.0728346,22.3228346 C31.0728346,21.6338583 31.4402887,21.2204724 32.1751969,21.0826772 L32.1751969,21.0826772 Z" id="Combined-Shape"></path>
                </g>
            </g>
        </g>
    </g>
</svg>