<?xml version="1.0" encoding="UTF-8"?>
<svg width="48px" height="47px" viewBox="0 0 48 47" version="1.1" xmlns="http://www.w3.org/2000/svg" xmlns:xlink="http://www.w3.org/1999/xlink">
    <title>Group 3</title>
    <defs>
        <linearGradient x1="34.116719%" y1="77.7131417%" x2="60.7391131%" y2="20.3751834%" id="linearGradient-1">
            <stop stop-color="#FA8202" offset="0%"></stop>
            <stop stop-color="#D8D8D8" offset="100%"></stop>
        </linearGradient>
    </defs>
    <g id="лендинг" stroke="none" stroke-width="1" fill="none" fill-rule="evenodd">
        <g id="Desktop-HD-Copy-8" transform="translate(-154.000000, -561.000000)">
            <g id="Group-11" transform="translate(142.000000, 534.000000)">
                <g id="Group-9" transform="translate(0.000000, 4.000000)">
                    <g id="Group-3" transform="translate(12.000000, 23.000000)">
                        <path d="M12.7650603,2.41202346 L11.1111013,0 L25.8589019,0 L20.8281101,13.0938416 L19.2430661,11.3020528 C13.2244933,14.1964809 10.2152069,18.1705767 10.2152069,23.2243402 C10.2152069,28.2781036 13.5460964,33.0791789 20.2078755,37.627566 L8.00992831,38.0410557 C6.67742427,37.7071964 5.73558654,37.3166783 5.18441511,36.8695015 C1.53192244,33.9061584 -0.444014123,28.7883484 0.084708368,21.914956 C0.727914624,13.5532747 4.95469859,7.05229717 12.7650603,2.41202346 Z" id="Path-18" fill="#FA8202"></path>
                        <path d="M15.1081688,30.8739003 L21.7929195,13.6451613 C22.7365015,12.3087911 23.3889564,11.492852 23.7502842,11.1973439 C23.7640787,11.1860621 23.7778018,11.1750218 23.7914532,11.1642229 C24.3414734,10.7291323 25.2143962,10.3386142 26.4102216,9.99266862 L37.1609547,9.99266862 C35.5775784,11.0227633 34.5897974,11.9646011 34.1976116,12.8181818 C33.0236279,15.3733227 32.0744703,17.8534553 30.9586087,20.5366569 C29.8473653,23.2087534 28.5687512,26.0842695 27.7196057,28.4618768 C27.0304562,30.3914956 26.1565717,31.8551696 25.5143271,33.0791789 C24.6789261,34.6713116 23.9438332,35.8888092 23.3090485,36.7316716 C23.071121,36.8451979 22.8873477,36.9141129 22.7577289,36.9384164 C22.6281101,36.96272 22.4443368,36.96272 22.2064092,36.9384164 C21.3334865,36.7546432 20.1849039,36.1803519 18.7606614,35.2155425 C17.336419,34.2507331 16.1878364,33.1710655 15.3149136,31.9765396 C15.2004276,31.7334939 15.1315127,31.5497207 15.1081688,31.4252199 C15.0848249,31.3007192 15.0848249,31.116946 15.1081688,30.8739003 Z" id="Path-19" fill="url(#linearGradient-1)"></path>
                        <path d="M22.0685793,47 L26.9615412,34.7331378 L28.6155002,36.1803519 C32.4747377,34.526393 34.9786478,31.7927664 36.1272304,27.9794721 C37.275813,24.1661779 36.7015217,20.3758553 34.4043565,16.6085044 C36.4258618,13.1627566 38.263594,11.3020528 39.9175529,11.026393 C41.5715119,10.7507331 43.2254708,12.014174 44.8794298,14.8167155 C47.0387651,18.7218964 47.6130564,23.4540567 46.6023037,29.0131965 C45.591551,34.5723363 41.5255686,39.8328446 34.4043565,44.7947214 L35.9204855,47 L22.0685793,47 Z" id="Path-20" fill="#D4D4D4"></path>
                    </g>
                </g>
            </g>
        </g>
    </g>
</svg>