<?xml version="1.0" encoding="UTF-8"?>
<svg width="53px" height="30px" viewBox="0 0 53 30" version="1.1" xmlns="http://www.w3.org/2000/svg" xmlns:xlink="http://www.w3.org/1999/xlink">
    <title>Car Copy 2</title>
    <g id="лендинг" stroke="none" stroke-width="1" fill="none" fill-rule="evenodd">
        <g id="Desktop-HD-Copy-8" transform="translate(-449.000000, -570.000000)">
            <g id="Group-11" transform="translate(142.000000, 534.000000)">
                <g id="Group-9-Copy" transform="translate(297.000000, 1.000000)">
                    <g id="Car-Copy" transform="translate(10.000000, 35.000000)">
                        <path d="M44.1916773,22.4447361 C46.1725957,22.4447361 47.7784474,24.0505878 47.7784474,26.0315062 C47.7784474,28.0124246 46.1725957,29.6182763 44.1916773,29.6182763 C42.2107588,29.6182763 40.6049072,28.0124246 40.6049072,26.0315062 C40.6049072,24.0505878 42.2107588,22.4447361 44.1916773,22.4447361 Z M7.8942405,22.4447361 C9.82229462,22.4447361 11.3852913,24.0077328 11.3852913,25.9357869 C11.3852913,27.863841 9.82229462,29.4268377 7.8942405,29.4268377 C5.96618639,29.4268377 4.4031897,27.863841 4.4031897,25.9357869 C4.4031897,24.0077328 5.96618639,22.4447361 7.8942405,22.4447361 Z M44.1916773,23.4695275 C42.7767355,23.4695275 41.6296986,24.6165645 41.6296986,26.0315062 C41.6296986,27.4464479 42.7767355,28.5934849 44.1916773,28.5934849 C45.606619,28.5934849 46.7536559,27.4464479 46.7536559,26.0315062 C46.7536559,24.6165645 45.606619,23.4695275 44.1916773,23.4695275 Z M7.8942405,23.4421792 C6.51705899,23.4421792 5.40063279,24.5586054 5.40063279,25.9357869 C5.40063279,27.3129684 6.51705899,28.4293946 7.8942405,28.4293946 C9.27142202,28.4293946 10.3878482,27.3129684 10.3878482,25.9357869 C10.3878482,24.5586054 9.27142202,23.4421792 7.8942405,23.4421792 Z M33.1486018,0 C34.2524714,0.00179330754 35.1476117,0.896131699 35.1503943,1.9999992 L35.1659154,19.3177578 L2,19.3177578 C0.8954305,19.3177578 1.3527075e-16,18.4223273 0,17.3177578 L0,2 C-1.3527075e-16,0.8954305 0.8954305,2.02906125e-16 2,0 L33.1486018,0 Z" id="Combined-Shape" fill="#FA8202"></path>
                        <path d="M39.8861407,24.4978937 L37.5597852,24.4995537 C37.3491534,24.4995537 37.1825348,24.4480272 37.0599293,24.3449741 C36.9373239,24.2419211 36.8627503,24.0806598 36.8362085,23.8611904 L36.8625962,7.45335863 C36.8601339,7.28877991 36.9259116,7.15216096 37.0599293,7.04350177 C37.1939471,6.93484259 37.3444396,6.880513 37.5114069,6.880513 L46.6870683,6.91752661 C46.9558193,6.91023499 47.1889413,6.9663305 47.3864342,7.08581312 C47.5839271,7.20529575 47.7888715,7.40370762 48.0012673,7.68104875 L52.9937672,15.6276421 L53,24.0081666 C52.9958448,24.131305 52.9235479,24.2435742 52.7831094,24.3449741 C52.6426708,24.446374 52.4608299,24.4945404 52.2375866,24.4894732 L48.7505858,24.4862669 C47.6586295,22.581341 46.159393,21.6288781 44.2528763,21.6288781 C42.3463597,21.6288781 40.8907812,22.5852166 39.8861407,24.4978937 Z" id="Path-9" fill="#DEDEDE"></path>
                        <path d="M51.1900649,22.9725656 L51.2049726,21.5774376 C51.2552594,21.2444989 51.4667339,21.0780295 51.839396,21.0780295 C52.2120582,21.0780295 52.4249579,21.2427993 52.4780952,21.5723388 L52.4887272,22.9946757 C52.4476929,23.361454 52.2312492,23.5448432 51.839396,23.5448432 C51.4475429,23.5448432 51.2310992,23.354084 51.1900649,22.9725656 Z" id="Path" fill="#101822"></path>
                        <path d="M38.8709576,14.0182238 L38.8619966,8.80461874 C38.8617628,8.59511857 38.9415174,8.4206666 39.1012604,8.28126285 C39.2610034,8.1418591 39.4690616,8.08284889 39.7254351,8.10423221 L45.2755663,8.13941971 C45.6442858,8.12548952 45.9400006,8.17277056 46.1627107,8.28126285 C46.3854209,8.38975514 46.5771023,8.58641101 46.7377552,8.87123046 L49.7628677,13.8525195 C49.8361621,14.0536221 49.8067266,14.2347996 49.6745611,14.396052 C49.5423957,14.5573044 49.3544237,14.6472969 49.1106452,14.6660293 L39.4436054,14.6037527 C39.2925233,14.579874 39.1614953,14.5106405 39.0505212,14.396052 C38.9395472,14.2814635 38.8796927,14.1555208 38.8709576,14.0182238 Z" id="Path" fill="#101822"></path>
                        <path d="M3.47914752,24.7370255 C2.32491898,24.2944232 1.74780471,23.5885333 1.74780471,22.6193556 C1.74780471,21.6501779 2.32491898,20.9522331 3.47914752,20.5255213 L35.1558677,20.5255213 L35.1558677,24.8617604 L12.6330573,24.8617604 C11.5832487,22.6926864 10.0444746,21.6081494 8.01673507,21.6081494 C5.9889955,21.6081494 4.47646632,22.6511081 3.47914752,24.7370255 Z" id="Path-12" fill="#DEDEDE"></path>
                        <path d="M11.4421539,7.98586959 L12.4899,2.44900001 L11.4847452,2.44900001 L9.95145829,3.12194262 L9.99404959,4.07598784 L11.0758687,3.59896523 L11.0929052,3.59896523 L10.2666339,7.98586959 L11.4421539,7.98586959 Z M15.3179626,8.07105219 C15.8120218,8.07105219 16.2379348,7.97735132 16.5020009,7.84957741 L16.4934827,6.92108697 C16.2805261,7.00626958 16.0249783,7.09145219 15.6672113,7.09145219 C15.2157435,7.09145219 14.8494583,6.80183132 14.8494583,6.23110784 C14.8494583,5.44742784 15.394627,4.70633914 16.2634896,4.70633914 C16.5105192,4.70633914 16.6808844,4.74893045 16.8256948,4.80855827 L17.1323522,3.86303131 C16.9449505,3.79488523 16.6382931,3.72673914 16.2805261,3.72673914 C14.6961296,3.72673914 13.5632009,4.88522262 13.5632009,6.36740002 C13.5632009,7.44070089 14.2872531,8.07105219 15.3179626,8.07105219 Z M18.3930548,8.07957046 C18.8785957,8.07957046 19.4152461,7.84957741 19.7985679,7.15959828 L19.8156044,7.15959828 C19.7985679,7.45773741 19.7730131,7.73884002 19.7644948,7.98586959 L20.8889053,7.98586959 C20.8718687,7.46625567 20.9570514,6.64850263 21.0592705,6.11185219 L21.4937018,3.9311774 C21.1444531,3.82044001 20.6163209,3.72673914 20.1137435,3.72673914 C18.0693609,3.72673914 17.1323522,5.22595306 17.1323522,6.6314661 C17.1323522,7.50032871 17.6434479,8.07957046 18.3930548,8.07957046 Z M18.9126687,7.09145219 C18.5719383,7.09145219 18.4100914,6.81034958 18.4100914,6.40147306 C18.4100914,5.62631132 18.9893331,4.65522958 19.7815314,4.65522958 C19.9093053,4.65522958 20.0200427,4.6722661 20.1137435,4.68930262 L19.9263418,5.6518661 C19.7304218,6.67405741 19.278954,7.09145219 18.9126687,7.09145219 Z M23.0184705,7.98586959 L23.3080914,6.4355461 C23.4614201,5.61779306 23.8277053,4.91929566 24.6113853,4.91929566 C24.6795314,4.91929566 24.7476775,4.91929566 24.8073053,4.92781393 L25.0458166,3.7352574 C24.9691522,3.72673914 24.8924879,3.72673914 24.8158235,3.72673914 C24.2451001,3.72673914 23.785114,4.11857914 23.4869748,4.6722661 L23.4614201,4.6722661 C23.4954931,4.38264523 23.5125296,4.10154262 23.5380844,3.82044001 L22.4733018,3.82044001 C22.4307105,4.17820697 22.3796009,4.87670436 22.2603453,5.50705567 L21.7918409,7.98586959 L23.0184705,7.98586959 Z M9.09537307,16.5041305 L9.52980437,14.1871635 L11.5230774,14.1871635 L11.7275157,13.1564539 L9.72572437,13.1564539 L9.98979046,11.8105687 L12.1193557,11.8105687 L12.3237939,10.7628226 L8.95908089,10.7628226 L7.8687435,16.5041305 L9.09537307,16.5041305 Z M13.4396861,16.5041305 L13.8655992,14.2382731 L14.2404026,14.2382731 C14.7259435,14.2382731 14.9644548,14.4512296 15.0240826,15.149727 C15.0751922,15.8567426 15.13482,16.3508018 15.1859296,16.5041305 L16.4466322,16.5041305 C16.3444131,16.2656192 16.3018218,15.5160122 16.2251574,14.8686244 C16.1740479,14.3490105 16.0207192,13.974207 15.6799887,13.8208783 L15.6799887,13.7953235 C16.4210774,13.5568122 16.9832827,13.0201618 16.9832827,12.1683357 C16.9832827,11.6402035 16.7192166,11.2739183 16.3444131,11.0524435 C15.9440548,10.7968957 15.3818496,10.7202313 14.8366809,10.7202313 C14.2659574,10.7202313 13.6867157,10.7713409 13.3033939,10.8650418 L12.2300931,16.5041305 L13.4396861,16.5041305 Z M14.5555783,13.3183009 L14.0530009,13.3183009 L14.35114,11.7253861 C14.4533592,11.6998313 14.5981696,11.6827948 14.8281626,11.6827948 C15.3222218,11.6827948 15.7055435,11.8872331 15.7055435,12.3557374 C15.7055435,12.9179426 15.2200026,13.3183009 14.5555783,13.3183009 Z M20.7142809,16.5041305 L20.9102009,15.4563844 L18.6187887,15.4563844 L18.8828548,14.0679079 L20.9187192,14.0679079 L21.1231574,13.0371983 L19.0702566,13.0371983 L19.3087679,11.8105687 L21.4724061,11.8105687 L21.6768444,10.7628226 L18.2780583,10.7628226 L17.1877209,16.5041305 L20.7142809,16.5041305 Z M25.1182218,16.5041305 L25.3141418,15.4563844 L23.0227296,15.4563844 L23.2867957,14.0679079 L25.3226601,14.0679079 L25.5270983,13.0371983 L23.4741975,13.0371983 L23.7127088,11.8105687 L25.876347,11.8105687 L26.0807853,10.7628226 L22.6819992,10.7628226 L21.5916618,16.5041305 L25.1182218,16.5041305 Z" id="1carFREE" fill="#101822" fill-rule="nonzero"></path>
                    </g>
                </g>
            </g>
        </g>
    </g>
</svg>