<?xml version="1.0" encoding="UTF-8"?>
<svg width="130px" height="22px" viewBox="0 0 130 22" version="1.1" xmlns="http://www.w3.org/2000/svg" xmlns:xlink="http://www.w3.org/1999/xlink">
    <title>Group 4</title>
    <g id="лендинг" stroke="none" stroke-width="1" fill="none" fill-rule="evenodd">
        <g id="Desktop-HD-Copy-8" transform="translate(-142.000000, -22.000000)">
            <g id="Group-4" transform="translate(142.000000, 22.000000)">
                <path d="M128.702055,0.261019577 L127.068438,4.21875092 L117.957235,4.21875092 C117.41831,4.21875092 116.997275,4.37593741 116.69413,4.6903104 C116.390984,5.00468338 116.239412,5.43694624 116.239412,5.98709897 C116.239412,6.75057622 116.840089,7.34563937 118.041442,7.77228842 C118.827375,8.06420619 120.073639,8.32244115 121.780235,8.54699328 C123.486832,8.77154541 124.963262,9.10837361 126.209526,9.55747788 C128.780648,10.7139214 130.043754,12.6170007 129.998844,15.2667159 C129.965161,17.1529538 129.257821,18.5788598 127.876826,19.544434 C126.675472,20.3865045 125.232724,20.8075397 123.548583,20.8075397 L123.548583,20.8075397 L112.76335,20.8040196 L110.93935,16.8450196 L123.548583,16.8498084 C124.000495,16.8498084 124.370743,16.763847 124.659327,16.5919243 L124.778006,16.5129802 C125.103607,16.2098348 125.260794,15.777572 125.249566,15.2161916 C125.260794,14.2730727 124.822917,13.5994163 123.935936,13.1952224 C123.105093,12.8247114 121.67638,12.4738487 119.649797,12.1426343 C117.623214,11.8114199 115.98679,11.410033 114.740526,10.9384735 C112.573598,9.90553368 111.490134,8.25507551 111.490134,5.98709897 C111.490134,4.24681994 112.158177,2.8377553 113.494262,1.75990506 C114.718071,0.760648073 116.205729,0.261019577 117.957235,0.261019577 L117.957235,0.261019577 L128.702055,0.261019577 Z" id="Combined-Shape" fill="#FD8301" fill-rule="nonzero"></path>
                <polygon id="Path" fill="#FD8301" fill-rule="nonzero" points="102.513662 20.8075397 100.795839 16.7487599 94.278213 16.7487599 98.2359443 7.26704612 104.079914 20.8075397 109.334433 20.8075397 99.9537681 0.277860987 96.5349619 0.277860987 87.1542966 20.8075397"></polygon>
                <path d="M75.6347721,4.33664079 L83.1123582,4.33664079 C83.4716416,4.33664079 83.8084698,4.49382728 84.1228428,4.80820027 C84.5831746,5.25730453 84.8133406,6.11621644 84.8133406,7.38493599 C84.8133406,8.64242794 84.5831746,9.49572604 84.1228428,9.94483031 C83.8084698,10.2592033 83.4716416,10.4163898 83.1123582,10.4163898 L83.1123582,10.4163898 L77.3189131,10.4163898 L75.6347721,14.492011 L75.6347721,4.33664079 Z M75.6347721,14.492011 L83.1123582,14.492011 C85.0771893,14.492011 86.7332613,13.8183546 88.0805741,12.4710418 C89.281928,11.2696879 89.882605,9.57431929 89.882605,7.38493599 C89.882605,5.1955527 89.281928,3.49457029 88.0805741,2.28198877 C86.7332613,0.945903583 85.0771893,0.277860987 83.1123582,0.277860987 L70.5655077,0.277860987 L70.5655077,20.8075397 L75.6347721,20.8075397 L75.6347721,14.492011 Z" id="pas" fill="#FD8301" fill-rule="nonzero"></path>
                <g id="Group-3">
                    <path d="M9.93643188,0.277860987 L21.7024354,0.297675456 C21.4152836,0.54733594 21.1353324,0.808986581 20.8625568,1.0817622 C19.8606214,2.08369757 19.1124358,3.14736711 18.5768707,4.33139423 L9.93643188,4.33664079 C8.70139515,4.33664079 7.61793111,4.80258646 6.68603976,5.73447782 C5.60818952,6.81232805 5.0692644,8.36173777 5.0692644,10.382707 C5.0692644,12.6170007 5.60818952,14.2730727 6.68603976,15.3509229 C7.61793111,16.2828143 8.70139515,16.7487599 9.93643188,16.7487599 L9.93643188,16.7487599 L17.4234218,16.7234856 C17.527408,18.1982336 17.8104491,19.5853191 18.4833624,20.8338548 L9.93643188,20.8075397 C7.0958474,20.8075397 4.69875338,19.8251242 2.74514982,17.860293 C0.915049941,16.0414207 0,13.548892 0,10.382707 C0,7.42984642 0.915049941,5.04398001 2.74514982,3.22510773 C4.69875338,1.26027657 7.0958474,0.277860987 9.93643188,0.277860987 L9.93643188,0.277860987 Z" id="compss" fill="#FFFFFF" fill-rule="nonzero"></path>
                    <polygon id="Path" fill="#FD8301" fill-rule="nonzero" points="67.6856266 20.8075397 67.6856266 0.277860987 64.1489306 0.277860987 54.1114502 16.6140287 56.3176749 20.1675662 62.9531904 9.64168493 62.9531904 20.8075397"></polygon>
                    <path d="M32.823908,21.312782 C35.6644925,21.312782 38.0615865,20.3303665 40.0151901,18.3655353 C41.84529,16.546663 42.7603399,13.9418583 42.7603399,10.5511211 C42.7603399,7.37370839 43.5631138,3.22510773 41.7330139,1.40623545 C39.7794103,-0.558595707 35.6644925,0.109446888 32.823908,0.109446888 L30.4324278,0.109446888 C27.5918433,0.109446888 25.1947493,1.09186247 23.2411457,3.05669363 C21.4110459,4.87556591 20.4959959,7.37370839 20.4959959,10.5511211 C20.4959959,13.9418583 19.9739122,18.4497423 21.7927845,20.2686146 C23.7576157,22.2334458 27.5918433,21.312782 30.4324278,21.312782 L32.823908,21.312782 Z" id="Path" fill="#FFFFFF" fill-rule="nonzero"></path>
                    <polygon id="Path" fill="#FFFFFF" fill-rule="nonzero" points="49.6821594 20.8075397 49.6821594 9.64168493 53.3199039 15.3509229 55.5261286 11.8142268 48.4864193 0.277860987 44.9497232 0.277860987 44.9497232 20.8075397"></polygon>
                    <g id="Group-2" transform="translate(31.834716, 10.817622) rotate(-315.000000) translate(-31.834716, -10.817622) translate(27.816742, 0.000000)">
                        <polygon id="Triangle" fill="#C74923" points="4.17251135 -1.50509848e-13 8.03594779 10.817622 0 10.817622"></polygon>
                        <polygon id="Triangle" fill="#1353A2" transform="translate(4.017974, 16.226433) scale(1, -1) translate(-4.017974, -16.226433) " points="4.17251135 10.817622 8.03594779 21.6352441 0 21.6352441"></polygon>
                        <circle id="Oval" fill="#FFFFFF" cx="4.0179739" cy="10.817622" r="1.0817622"></circle>
                    </g>
                </g>
            </g>
        </g>
    </g>
</svg>