<?xml version="1.0" encoding="UTF-8"?>
<svg width="42px" height="40px" viewBox="0 0 42 40" version="1.1" xmlns="http://www.w3.org/2000/svg" xmlns:xlink="http://www.w3.org/1999/xlink">
    <title>Group 3</title>
    <defs>
        <linearGradient x1="50%" y1="0%" x2="50%" y2="100%" id="linearGradient-1">
            <stop stop-color="#FD8301" offset="0%"></stop>
            <stop stop-color="#B25C00" offset="100%"></stop>
        </linearGradient>
    </defs>
    <g id="лендинг" stroke="none" stroke-width="1" fill="none" fill-rule="evenodd">
        <g id="Desktop-HD-Copy-8" transform="translate(-883.000000, -449.000000)">
            <g id="Group" transform="translate(747.000000, 111.000000)">
                <g id="Group-2" transform="translate(136.635289, 338.000000)">
                    <path d="M4.20867769,40 L7.24586777,35.2706612 C8.07024793,34.0123967 8.76446281,32.8842975 9.45867769,31.6260331 L9.54545455,31.6260331 C10.2830579,32.8842975 10.9772727,34.0557851 11.8016529,35.2706612 L14.9256198,40 L19.2210744,40 L11.8884298,29.1528926 L19.0475207,19 L14.8822314,19 L11.9752066,23.4690083 C11.2376033,24.5971074 10.5433884,25.6818182 9.84917355,26.8966942 L9.76239669,26.8966942 C9.06818182,25.7252066 8.41735537,24.6838843 7.59297521,23.5123967 L4.59917355,19 L0.347107438,19 L7.46280992,29.2830579 L0,40 L4.20867769,40 Z" id="x" fill="url(#linearGradient-1)"></path>
                    <path d="M40.67498,38 L40.67498,30.8139183 L26.5327713,30.8139183 L26.5327713,30.698941 L29.9820905,27.8245083 C35.4435126,22.9954614 39.9276275,17.9939486 39.9276275,11.6701967 C39.9276275,4.94402421 35.3285353,0 26.8202145,0 C21.8187017,0 17.3920753,1.72465961 14.63262,3.85173979 L17.1046321,10.0605144 C19.0592463,8.62329803 21.8761903,7.01361573 25.0955549,7.01361573 C29.4072039,7.01361573 31.1893522,9.42813918 31.1893522,12.4750378 C31.1318635,16.8441755 27.1651464,21.0408472 18.944269,28.3993949 L14.1727107,32.7110439 L14.1727107,38 L40.67498,38 Z" id="2" fill="#DEDEDE" fill-rule="nonzero"></path>
                </g>
            </g>
        </g>
    </g>
</svg>